<?xml version="1.0" encoding="UTF-8"?>
<svg version="1.1" xmlns="http://www.w3.org/2000/svg" width="200" height="200">
<path d="M0 0 C18.85727937 16.3822959 30.07000927 39.09691152 32.26171875 63.890625 C33.70575721 90.87609371 25.23183696 114.81797011 7.26171875 134.890625 C6.71128906 135.52355469 6.16085938 136.15648437 5.59375 136.80859375 C-10.28640731 153.94347953 -34.39104854 162.85532158 -57.2421875 164.078125 C-80.61427078 164.49594995 -103.09303738 157.43246232 -120.73828125 141.890625 C-121.96804687 140.89289063 -121.96804687 140.89289063 -123.22265625 139.875 C-140.82453119 125.11566387 -150.95235328 102.93088884 -153.55078125 80.328125 C-153.63402147 78.84998044 -153.69791935 77.37056121 -153.73828125 75.890625 C-153.78855469 75.18164062 -153.83882812 74.47265625 -153.890625 73.7421875 C-154.85939379 51.03424714 -146.35553514 28.05001001 -131.73828125 10.890625 C-131.1453125 10.15328125 -130.55234375 9.4159375 -129.94140625 8.65625 C-114.84939291 -9.42922053 -92.15331632 -19.30762272 -69.12109375 -21.83203125 C-43.9465247 -23.89599707 -19.37236065 -16.18895415 0 0 Z " fill="#FAFAFA" transform="translate(160.73828125,29.109375)"/>
<path d="M0 0 C18.85727937 16.3822959 30.07000927 39.09691152 32.26171875 63.890625 C33.70575721 90.87609371 25.23183696 114.81797011 7.26171875 134.890625 C6.71128906 135.52355469 6.16085938 136.15648437 5.59375 136.80859375 C-10.28640731 153.94347953 -34.39104854 162.85532158 -57.2421875 164.078125 C-80.61427078 164.49594995 -103.09303738 157.43246232 -120.73828125 141.890625 C-121.96804687 140.89289063 -121.96804687 140.89289063 -123.22265625 139.875 C-140.82453119 125.11566387 -150.95235328 102.93088884 -153.55078125 80.328125 C-153.63402147 78.84998044 -153.69791935 77.37056121 -153.73828125 75.890625 C-153.78855469 75.18164062 -153.83882812 74.47265625 -153.890625 73.7421875 C-154.85939379 51.03424714 -146.35553514 28.05001001 -131.73828125 10.890625 C-131.1453125 10.15328125 -130.55234375 9.4159375 -129.94140625 8.65625 C-114.84939291 -9.42922053 -92.15331632 -19.30762272 -69.12109375 -21.83203125 C-43.9465247 -23.89599707 -19.37236065 -16.18895415 0 0 Z M-106.73828125 -5.109375 C-107.59035156 -4.62597656 -108.44242188 -4.14257812 -109.3203125 -3.64453125 C-128.72689626 8.41902082 -142.47738365 28.80674412 -147.73828125 50.890625 C-152.20619871 74.54539873 -148.63579737 99.44612495 -135.52441406 119.77246094 C-132.81574749 123.67743757 -129.85343342 127.3039361 -126.73828125 130.890625 C-126.09246094 131.63699219 -125.44664063 132.38335937 -124.78125 133.15234375 C-109.80541194 149.20013653 -87.33611415 158.98447688 -65.5546875 160.18359375 C-41.56870367 160.92132646 -19.45359714 153.1920747 -1.36328125 137.390625 C0.19662627 135.90960351 1.73941029 134.41026742 3.26171875 132.890625 C4.28845703 131.88128906 4.28845703 131.88128906 5.3359375 130.8515625 C21.45259452 113.94332115 28.66524409 91.36509677 28.56469727 68.3347168 C27.95803295 43.43352294 16.96064981 21.82160244 -0.73828125 4.890625 C-20.6653394 -13.77122311 -44.972799 -17.99070523 -71.39941406 -17.27978516 C-84.38089069 -16.61723246 -95.58250546 -11.438412 -106.73828125 -5.109375 Z " fill="#292929" transform="translate(160.73828125,29.109375)"/>
<path d="M0 0 C4.14416425 1.70043103 7.24376437 4.64154255 10.5625 7.5625 C11.82076902 8.65592172 13.07989236 9.74836105 14.33984375 10.83984375 C14.96101074 11.37851074 15.58217773 11.91717773 16.22216797 12.47216797 C19.52430364 15.30995498 22.90986798 18.0440863 26.2890625 20.7890625 C29.21060039 23.17175766 32.10689161 25.5828786 35 28 C38.79412502 31.16909541 42.60399849 34.31617294 46.4375 37.4375 C51.66486324 41.70272537 56.81614795 46.05330051 61.95703125 50.421875 C62.96121094 51.27265625 63.96539062 52.1234375 65 53 C65.53286621 53.48662109 66.06573242 53.97324219 66.61474609 54.47460938 C68.0132079 55.72439034 69.50182819 56.87166977 71 58 C74.28938993 57.24255225 74.28938993 57.24255225 76.0625 53.9375 C77.72753576 51.87745576 78.66043175 51.09752923 81.23046875 50.359375 C86.54528641 49.9968138 89.66711011 51.04895504 93.875 54.3125 C95.25949702 55.53095956 96.63496141 56.75978012 98 58 C99.3228246 59.01386038 100.65302131 60.01845724 102 61 C100.48133302 64.39743025 98.49720998 67.01618284 96.125 69.875 C94.93197266 71.31359375 94.93197266 71.31359375 93.71484375 72.78125 C90.22987729 76.92847672 86.70388902 81.04094739 83.16259766 85.14013672 C80.37146636 88.37457082 77.64575884 91.64409687 75 95 C71.81293058 93.56438314 69.37830895 91.79733671 66.75 89.5 C66.04359375 88.8915625 65.3371875 88.283125 64.609375 87.65625 C63 86 63 86 63 84 C62.34 84 61.68 84 61 84 C59.74648158 80.97006691 58.97526469 78.2947438 59 75 C60.88431197 71.56177597 63.27898498 68.8072911 66 66 C58.98636299 60.03450588 51.94433776 54.11464229 44.80078125 48.3046875 C41.73224213 45.77966925 38.70960188 43.20515231 35.6875 40.625 C31.25149506 36.84208453 26.73417051 33.19443493 22.125 29.625 C16.22929949 25.05710004 10.57209264 20.25287201 4.97314453 15.32666016 C2.05784224 12.76376576 -0.84034467 10.26363367 -4 8 C-3.6875 5.125 -3.6875 5.125 -3 2 C-2.01 1.34 -1.02 0.68 0 0 Z " fill="#060606" transform="translate(70,68)"/>
<path d="M0 0 C3.11963955 1.36018991 5.00834822 2.83260134 7.1875 5.4375 C7.69667969 6.03433594 8.20585938 6.63117188 8.73046875 7.24609375 C12.1345682 11.94898806 11.19378666 17.47393003 10.5 22.9375 C10.335 23.948125 10.17 24.95875 10 26 C12.37374861 26.33425735 12.37374861 26.33425735 15 26 C16.84315671 24.0995533 16.84315671 24.0995533 18 22 C17.66837721 29.46151277 16.23157577 34.01700698 10.5625 39.25 C4.67271056 43.27229523 -1.01010571 43.95939725 -8 43 C-13.12400703 40.94018322 -17.03699683 37.67242808 -20 33 C-21.74017022 28.91059997 -22.56600443 25.43370136 -22 21 C-20 18.125 -20 18.125 -18 16 C-17.34 16.33 -16.68 16.66 -16 17 C-15.59270772 19.32156597 -15.25561323 21.6568787 -15 24 C-13.35 24 -11.7 24 -10 24 C-10.11859375 22.98679688 -10.2371875 21.97359375 -10.359375 20.9296875 C-10.49076578 19.57823944 -10.62090796 18.22666958 -10.75 16.875 C-10.83121094 16.20984375 -10.91242188 15.5446875 -10.99609375 14.859375 C-11.45551921 9.65255307 -10.3007216 6.98320163 -7 3 C-6.67 3 -6.34 3 -6 3 C-5.34 6.96 -4.68 10.92 -4 15 C-2.68 15.33 -1.36 15.66 0 16 C2.47682859 12.28475712 2.43538538 9.30361706 2 5 C1.11785113 2.11785113 1.11785113 2.11785113 0 0 Z " fill="#060606" transform="translate(102,135)"/>
<path d="M0 0 C6 4.5 6 4.5 12 9 C10.48133302 12.39743025 8.49720998 15.01618284 6.125 17.875 C5.32964844 18.8340625 4.53429687 19.793125 3.71484375 20.78125 C0.22987729 24.92847672 -3.29611098 29.04094739 -6.83740234 33.14013672 C-9.62853364 36.37457082 -12.35424116 39.64409687 -15 43 C-18.23861303 41.55575365 -20.61969163 39.74227753 -23.25 37.375 C-23.95640625 36.74335938 -24.6628125 36.11171875 -25.390625 35.4609375 C-25.92171875 34.97882813 -26.4528125 34.49671875 -27 34 C-25.71076019 31.21176763 -24.31380469 29.01003398 -22.27734375 26.71484375 C-21.74286621 26.10680908 -21.20838867 25.49877441 -20.65771484 24.87231445 C-20.09004395 24.23382568 -19.52237305 23.59533691 -18.9375 22.9375 C-17.76054779 21.59738165 -16.58477379 20.25622767 -15.41015625 18.9140625 C-14.83152832 18.2530957 -14.25290039 17.59212891 -13.65673828 16.91113281 C-8.91038028 11.43596475 -4.31150172 5.82454425 0 0 Z " fill="#040404" transform="translate(160,120)"/>
<path d="M0 0 C1.32 1.32 2.64 2.64 4 4 C2.87777151 5.00310927 1.75196391 6.00221377 0.625 7 C-0.09558594 7.64066406 -0.81617188 8.28132813 -1.55859375 8.94140625 C-4 11 -4 11 -6.72265625 12.96484375 C-11.66477374 16.207452 -11.66477374 16.207452 -14.609375 21.0390625 C-14.64804688 22.04066406 -14.64804688 22.04066406 -14.6875 23.0625 C-15.08743114 28.10163236 -16.75739802 29.00088462 -20.359375 32.21484375 C-22.61793861 34.67237606 -22.97081557 36.86258086 -23.55078125 40.07421875 C-24.44193603 43.89456056 -26.57602388 46.9828742 -29.75 49.25 C-32 50 -32 50 -35.75 50.75 C-39.27691052 51.54470423 -41.39791017 52.90414954 -44.1875 55.1875 C-47.67100226 58.00715212 -47.67100226 58.00715212 -50.875 57.9375 C-52.26486997 57.32432207 -53.64125773 56.67937113 -55 56 C-55 55.34 -55 54.68 -55 54 C-54.071875 53.938125 -53.14375 53.87625 -52.1875 53.8125 C-48.85318312 53.34647708 -48.85318312 53.34647708 -47.5 50.6875 C-47.005 49.800625 -46.51 48.91375 -46 48 C-42.62399747 45.17357927 -40.07430643 43.83775341 -35.75 43.4375 C-34.5125 43.293125 -33.275 43.14875 -32 43 C-29.28187223 38.92280834 -29.32486595 34.83206771 -28.96484375 30.06835938 C-28.35252234 23.89315569 -26.20778036 20.11195016 -21.66015625 15.76171875 C-14.65473962 10.1679199 -7.434726 4.99982368 0 0 Z " fill="#0C0C0C" transform="translate(90,97)"/>
<path d="M0 0 C4.43769505 1.17429685 8.31814594 3.44639115 12.3046875 5.67236328 C13.17480469 6.14480469 14.04492188 6.61724609 14.94140625 7.10400391 C17.06902858 8.26133693 19.18951509 9.42997771 21.3046875 10.60986328 C20.4296875 17.48486328 20.4296875 17.48486328 19.3046875 18.60986328 C9.56502938 19.23123613 -0.11511737 18.38589404 -9.6953125 16.60986328 C-10.6953125 15.60986328 -10.6953125 15.60986328 -10.8828125 12.48486328 C-10.69017812 8.50375268 -10.08528191 5.3408338 -8.6953125 1.60986328 C-5.34638972 -0.6227519 -3.88788445 -0.60436665 0 0 Z " fill="#090909" transform="translate(31.6953125,65.39013671875)"/>
<path d="M0 0 C3.91670957 4.04726656 3.69836895 9.64344863 4 15 C-5.06997437 18.58025304 -16.39776332 19.0841235 -26 18 C-28.1519437 14.77208445 -28.20086443 13.71599191 -28 10 C-24.66204601 8.11547578 -21.30252961 6.27317396 -17.9375 4.4375 C-16.99455078 3.90447266 -16.05160156 3.37144531 -15.08007812 2.82226562 C-9.58440112 -0.14578293 -6.09603066 -1.99683561 0 0 Z " fill="#080808" transform="translate(176,66)"/>
<path d="M0 0 C5.59269154 1.83033541 7.52080177 6.24168975 10.4375 11.125 C11.03433594 12.02089844 11.63117188 12.91679688 12.24609375 13.83984375 C16.49925314 20.3718322 16.49925314 20.3718322 16.21875 23.79296875 C15.4375 26.125 15.4375 26.125 13.4375 28.125 C8.6496364 27.88257653 4.97076287 25.32159168 1 22.875 C0.03610352 22.30072266 0.03610352 22.30072266 -0.94726562 21.71484375 C-5.14651104 19.16545415 -8.85957733 16.3528955 -12.5625 13.125 C-11.54224682 6.65367986 -6.00058536 1.89492169 0 0 Z " fill="#060606" transform="translate(58.5625,30.875)"/>
<path d="M0 0 C5.53649556 1.66094867 9.12129877 5.93379877 13.125 9.9375 C12.94314877 12.61972134 12.4340962 13.66080726 10.42260742 15.46142578 C9.33749878 16.16501221 9.33749878 16.16501221 8.23046875 16.8828125 C7.04420898 17.66205078 7.04420898 17.66205078 5.83398438 18.45703125 C5.00189453 18.98683594 4.16980469 19.51664063 3.3125 20.0625 C2.49201172 20.60003906 1.67152344 21.13757813 0.82617188 21.69140625 C-8.87023344 27.99839494 -8.87023344 27.99839494 -11.9375 27.8125 C-14.41995013 26.69139349 -15.32119174 25.12955811 -16.875 22.9375 C-5.10285187 1.66397344 -5.10285187 1.66397344 0 0 Z " fill="#060606" transform="translate(141.875,31.0625)"/>
<path d="M0 0 C3.6467639 1.60457612 4.70049586 3.21710045 6.21484375 6.85546875 C6.51519531 7.68691406 6.81554687 8.51835937 7.125 9.375 C7.49753906 10.36113281 7.87007812 11.34726562 8.25390625 12.36328125 C11.70235065 22.01171629 11.70235065 22.01171629 11.125 27.375 C8.125 29.375 8.125 29.375 5.7421875 29.25390625 C-1.50049806 26.8216611 -9.88143288 17.88107624 -13.875 11.375 C-14.33984375 8.8515625 -14.33984375 8.8515625 -13.875 6.375 C-9.91297101 2.62821202 -5.39172872 0.5217802 0 0 Z " fill="#060606" transform="translate(79.875,19.625)"/>
<path d="M0 0 C5.57779864 0.93322242 8.44533779 5.41806966 12.03515625 9.5078125 C12.8240625 10.39339844 13.61296875 11.27898438 14.42578125 12.19140625 C20.08494929 18.84983299 20.08494929 18.84983299 19.87109375 21.67578125 C19.03515625 23.5078125 19.03515625 23.5078125 17.03515625 25.5078125 C10.79318328 25.27812951 6.24959591 23.53125103 0.78515625 20.6328125 C0.09164062 20.28089844 -0.601875 19.92898437 -1.31640625 19.56640625 C-4.76249835 17.79054653 -7.952631 15.97658481 -10.96484375 13.5078125 C-10.33756444 9.95594526 -8.91271233 7.64268131 -6.77734375 4.7578125 C-6.20628906 3.95859375 -5.63523437 3.159375 -5.046875 2.3359375 C-2.96484375 0.5078125 -2.96484375 0.5078125 0 0 Z " fill="#060606" transform="translate(40.96484375,45.4921875)"/>
<path d="M0 0 C1.24910156 0.00386719 2.49820313 0.00773438 3.78515625 0.01171875 C6.9375 0.3125 6.9375 0.3125 8.9375 2.3125 C8.80624615 4.91967879 8.56354631 7.3643683 8.1875 9.9375 C8.08824219 10.66227539 7.98898438 11.38705078 7.88671875 12.13378906 C6.06465476 24.95166327 6.06465476 24.95166327 2.9375 30.3125 C0.9575 30.3125 -1.0225 30.3125 -3.0625 30.3125 C-10.8115008 12.30050959 -10.8115008 12.30050959 -10.0625 3.3125 C-7.59913836 -0.60567304 -4.29422913 -0.05773007 0 0 Z " fill="#050505" transform="translate(101.0625,15.6875)"/>
<path d="M0 0 C3.90403234 0.80240981 5.00521624 2.22362408 7.40234375 5.359375 C8.10230469 6.24109375 8.80226562 7.1228125 9.5234375 8.03125 C10.96484375 10.609375 10.96484375 10.609375 11.12890625 12.68359375 C9.22626211 15.83125671 6.09566163 17.08435942 2.90234375 18.671875 C1.87778076 19.19575806 1.87778076 19.19575806 0.83251953 19.73022461 C-11.06892595 25.73760741 -11.06892595 25.73760741 -15.91015625 25.421875 C-18.03515625 24.609375 -18.03515625 24.609375 -20.03515625 22.609375 C-19.50962401 18.18092726 -16.61607342 15.40562503 -13.78515625 12.171875 C-13.30691406 11.61177734 -12.82867187 11.05167969 -12.3359375 10.47460938 C-10.92277804 8.83358274 -9.48048405 7.22205125 -8.03515625 5.609375 C-7.2153125 4.64902344 -6.39546875 3.68867187 -5.55078125 2.69921875 C-3.03515625 0.609375 -3.03515625 0.609375 0 0 Z " fill="#050505" transform="translate(160.03515625,45.390625)"/>
<path d="M0 0 C4.21902932 1.1940649 8.09577399 2.89734844 11.3125 5.9375 C12.14160156 8.25537109 12.14160156 8.25537109 12.3125 10.9375 C9.99964325 14.51963126 6.79144652 17.33874493 3.75 20.3125 C2.93724609 21.15683594 2.12449219 22.00117187 1.28710938 22.87109375 C0.09118164 24.06025391 0.09118164 24.06025391 -1.12890625 25.2734375 C-1.85795166 26.00095215 -2.58699707 26.7284668 -3.33813477 27.47802734 C-5.6875 28.9375 -5.6875 28.9375 -8.90991211 28.72900391 C-11.6875 27.9375 -11.6875 27.9375 -12.6875 26.9375 C-13.01479275 20.53394618 -11.12968722 14.80056842 -8.8125 8.9375 C-8.42759399 7.94919189 -8.42759399 7.94919189 -8.03491211 6.94091797 C-6.27428071 2.68509077 -5.05305241 -0.11751285 0 0 Z " fill="#040404" transform="translate(122.6875,20.0625)"/>
<path d="M0 0 C8.82432833 0.05776974 17.92182182 0.67917312 26.07421875 4.265625 C26.07421875 6.245625 26.07421875 8.225625 26.07421875 10.265625 C4.26154603 19.03520975 4.26154603 19.03520975 -2.92578125 16.265625 C-4.79822106 14.39318519 -4.09958517 11.32902982 -4.11328125 8.828125 C-4.12746094 7.65378906 -4.14164063 6.47945313 -4.15625 5.26953125 C-3.90036793 1.93439036 -3.50315006 0.48319311 0 0 Z " fill="#070707" transform="translate(22.92578125,87.734375)"/>
<path d="M0 0 C2.31928587 3.35007959 2.10239566 5.42684193 1.6875 9.4375 C0.6875 12.875 0.6875 12.875 -0.3125 15.4375 C-5.9796311 15.7144932 -10.59535404 14.78103287 -16 13.125 C-16.74572266 12.91166016 -17.49144531 12.69832031 -18.25976562 12.47851562 C-22.07729126 11.33768504 -25.42901274 10.32851594 -28.3125 7.4375 C-28.5625 4.75 -28.5625 4.75 -28.3125 2.4375 C-23.80092699 0.77791055 -19.51467166 -0.08169916 -14.75 -0.6875 C-12.82994141 -0.93886719 -12.82994141 -0.93886719 -10.87109375 -1.1953125 C-2.97490049 -2.0100679 -2.97490049 -2.0100679 0 0 Z " fill="#0B0B0B" transform="translate(180.3125,89.5625)"/>
<path d="M0 0 C-0.32966607 5.41888603 -3.51345573 8.31169889 -7 12.125 C-8.18486366 13.45329539 -9.36844916 14.78273197 -10.55078125 16.11328125 C-11.13553223 16.7676416 -11.7202832 17.42200195 -12.32275391 18.09619141 C-15.42379156 21.61611741 -18.35011809 25.27315213 -21.29296875 28.92578125 C-23 31 -23 31 -25 33 C-25.99 33 -26.98 33 -28 33 C-29.5021462 29.09080024 -30.70348222 25.69697139 -29.04296875 21.69140625 C-26.55757475 18.1174228 -24.3683355 15.74089361 -20.125 14.5 C-19.09375 14.335 -18.0625 14.17 -17 14 C-16.95875 12.989375 -16.9175 11.97875 -16.875 10.9375 C-16.26135351 6.92834291 -14.68435575 4.29132977 -11.96484375 1.3125 C-8.28916201 -1.14282617 -4.22813089 -0.52642736 0 0 Z " fill="#2F2F2F" transform="translate(159,119)"/>
<path d="M0 0 C2.475 1.485 2.475 1.485 5 3 C0.74885114 8.40010801 -3.93396082 12.58137956 -9.3203125 16.84375 C-11.58970389 18.66984919 -13.69496509 20.56731155 -15.8125 22.5625 C-18.33421172 24.77356608 -18.88513299 24.98746905 -22.4375 25.375 C-23.283125 25.25125 -24.12875 25.1275 -25 25 C-22.73302858 16.22872739 -16.6334213 12.05746406 -9.59033203 7.12060547 C-7.41730009 5.58940857 -5.3034826 3.98375242 -3.1875 2.375 C-2.135625 1.59125 -1.08375 0.8075 0 0 Z " fill="#0A0A0A" transform="translate(98,104)"/>
<path d="M0 0 C0 1.65 0 3.3 0 5 C-0.95712891 5.09087891 -0.95712891 5.09087891 -1.93359375 5.18359375 C-2.75988281 5.26738281 -3.58617188 5.35117188 -4.4375 5.4375 C-5.67306641 5.55931641 -5.67306641 5.55931641 -6.93359375 5.68359375 C-8.98662025 5.78930815 -8.98662025 5.78930815 -10 7 C-10.02644557 8.39573828 -10.04613275 9.79160715 -10.0625 11.1875 C-10.35700385 14.20495746 -10.68840238 15.63294238 -12.66796875 17.96484375 C-15.86487933 20.51397508 -17.83451731 22.04856178 -22 21.875 C-22.99 21.441875 -22.99 21.441875 -24 21 C-24 22.65 -24 24.3 -24 26 C-24.99 26.33 -25.98 26.66 -27 27 C-28 26 -28 26 -28.3671875 23.70703125 C-28 21 -28 21 -25.8828125 18.76171875 C-24.97273438 18.07722656 -24.06265625 17.39273438 -23.125 16.6875 C-22.22007813 15.99011719 -21.31515625 15.29273438 -20.3828125 14.57421875 C-18 13 -18 13 -16 13 C-16.103125 11.948125 -16.20625 10.89625 -16.3125 9.8125 C-16 6 -16 6 -13.75 3.125 C-9.15351247 -0.42683127 -5.75084493 -0.11059317 0 0 Z " fill="#111111" transform="translate(60,123)"/>
<path d="M0 0 C1.98 0 3.96 0 6 0 C7.02728289 3.29975717 7.03301803 6.06604789 6.75 9.5 C6.68296875 10.4384375 6.6159375 11.376875 6.546875 12.34375 C5.9281476 15.34899737 5.16411623 16.83588377 3 19 C1.05204654 19.25972713 -0.89928798 19.51078191 -2.859375 19.65234375 C-6.43776838 20.23350618 -8.98069079 22.05002947 -12 24 C-10.79618552 21.50638429 -9.54571278 19.31856917 -8 17 C-7.34 17 -6.68 17 -6 17 C-6.02320313 16.37351563 -6.04640625 15.74703125 -6.0703125 15.1015625 C-6.09738281 13.87566406 -6.09738281 13.87566406 -6.125 12.625 C-6.14820313 11.81289062 -6.17140625 11.00078125 -6.1953125 10.1640625 C-6 8 -6 8 -4 6 C-1.8359375 5.8046875 -1.8359375 5.8046875 0.625 5.875 C1.85089844 5.90207031 1.85089844 5.90207031 3.1015625 5.9296875 C4.04128906 5.96449219 4.04128906 5.96449219 5 6 C5 4.35 5 2.7 5 1 C3.35 1 1.7 1 0 1 C0 0.67 0 0.34 0 0 Z " fill="#EDEDED" transform="translate(55,122)"/>
<path d="M0 0 C2.99220268 1.36370299 5.29026529 2.94908083 7.75 5.125 C8.67039062 5.93324219 8.67039062 5.93324219 9.609375 6.7578125 C10.06828125 7.16773437 10.5271875 7.57765625 11 8 C10.01 8 9.02 8 8 8 C2.8384278 10.6437321 -1.52054262 14.5132778 -6.00390625 18.1484375 C-8.65115267 20.26623464 -10.75623709 21.9187457 -14 23 C-14.74259349 25.31029085 -15.411438 27.645752 -16 30 C-16.33 30.33 -16.66 30.66 -17 31 C-16.01 31.66 -15.02 32.32 -14 33 C-15.65 33 -17.3 33 -19 33 C-19.33 32.01 -19.66 31.02 -20 30 C-19.525625 29.67 -19.05125 29.34 -18.5625 29 C-16.6358326 26.92653567 -16.6358326 26.92653567 -16.79296875 23.23046875 C-16.42436851 19.8609528 -15.74949376 18.27259342 -13.234375 15.98828125 C-12.0902156 15.07426886 -10.92799794 14.18246565 -9.75 13.3125 C-8.59726983 12.41492471 -7.44620601 11.51520501 -6.296875 10.61328125 C-5.74193359 10.1848291 -5.18699219 9.75637695 -4.61523438 9.31494141 C-2.2277631 7.37133193 -0.12918511 5.22123635 2 3 C1.34 2.01 0.68 1.02 0 0 Z " fill="#E5E5E5" transform="translate(91,97)"/>
<path d="M0 0 C0.99 0.99 1.98 1.98 3 3 C-3.73098683 9.28460376 -10.52458503 15.37499891 -17.72265625 21.125 C-19.60176953 22.67212586 -21.32294169 24.24046341 -23 26 C-25.475 25.01 -25.475 25.01 -28 24 C-26.45162541 19.6866708 -23.15163044 17.47418783 -19.625 14.8125 C-19.00737793 14.33707764 -18.38975586 13.86165527 -17.75341797 13.37182617 C-15.842475 11.9052715 -13.92280829 10.45095349 -12 9 C-11.39542969 8.54238281 -10.79085937 8.08476563 -10.16796875 7.61328125 C-6.79043811 5.05953857 -3.40087022 2.52262352 0 0 Z " fill="#0C0C0C" transform="translate(136,74)"/>
<path d="M0 0 C0.66 0.33 1.32 0.66 2 1 C1.63109534 3.63421545 1.22504744 4.7862224 -0.73071289 6.64404297 C-1.84047485 7.43512451 -1.84047485 7.43512451 -2.97265625 8.2421875 C-3.79056641 8.83386719 -4.60847656 9.42554687 -5.45117188 10.03515625 C-6.31291016 10.64230469 -7.17464844 11.24945313 -8.0625 11.875 C-9.74107599 13.08046384 -11.41946319 14.28619062 -13.09765625 15.4921875 C-13.92023926 16.07323242 -14.74282227 16.65427734 -15.59033203 17.25292969 C-18.55492334 19.40233348 -21.39330176 21.69486946 -24.20874023 24.03564453 C-26 25 -26 25 -28.22680664 24.65576172 C-28.81196045 24.43936035 -29.39711426 24.22295898 -30 24 C-30 23.01 -30 22.02 -30 21 C-27.66168299 19.17489802 -25.35494343 17.54929383 -22.875 15.9375 C-21.41323945 14.9621699 -19.95231926 13.98557931 -18.4921875 13.0078125 C-17.74678711 12.5118457 -17.00138672 12.01587891 -16.23339844 11.50488281 C-12.77427964 9.17409923 -9.38537857 6.74864497 -6 4.3125 C-5.39526855 3.8786499 -4.79053711 3.4447998 -4.16748047 2.99780273 C-2.7773524 1.9998821 -1.38851459 1.00016442 0 0 Z " fill="#0E0E0E" transform="translate(131,68)"/>
<path d="M0 0 C0.66 0.33 1.32 0.66 2 1 C-2.62 5.62 -7.24 10.24 -12 15 C-12.66 14.67 -13.32 14.34 -14 14 C-9.61932717 8.89662734 -5.32423478 4.12628195 0 0 Z " fill="#646464" transform="translate(43,26)"/>
<path d="M0 0 C0.99 0.33 1.98 0.66 3 1 C3 2.32 3 3.64 3 5 C1.35 4.67 -0.3 4.34 -2 4 C-1.34 2.68 -0.68 1.36 0 0 Z " fill="#E3E3E3" transform="translate(68,120)"/>
</svg>
