<svg width="12" height="13" viewBox="0 0 12 13" fill="none" xmlns="http://www.w3.org/2000/svg">
<path d="M9.82548 0.00241222C10.1003 -0.0249913 10.3446 0.18424 10.3711 0.469629L10.6972 3.98829L7.30656 3.68673C7.03143 3.66229 6.82731 3.41058 6.85082 3.12485C6.87443 2.83929 7.11623 2.6273 7.3912 2.65155L8.62169 2.76041C7.98069 2.30843 7.23781 2.02555 6.45759 1.94565C5.38326 1.83576 4.30505 2.116 3.4074 2.73877C2.50979 3.36165 1.84778 4.2887 1.53432 5.36154C1.22091 6.43455 1.27545 7.58734 1.68862 8.62327C2.1018 9.65919 2.84781 10.5146 3.79999 11.0432C4.75206 11.5716 5.85129 11.7406 6.91007 11.5219C7.9689 11.3031 8.9225 10.7097 9.60738 9.84304C10.2921 8.97632 10.6666 7.88974 10.6666 6.7686H12C12 8.21018 11.5185 9.60764 10.638 10.722C9.75743 11.8363 8.53178 12.599 7.17049 12.8803C5.80915 13.1615 4.39587 12.9437 3.17172 12.2643C1.94755 11.5848 0.988073 10.4852 0.456831 9.15337C-0.0743737 7.82149 -0.144657 6.33945 0.258259 4.95991C0.661241 3.58041 1.51234 2.38821 2.6665 1.5873C3.82058 0.786563 5.20654 0.425765 6.5878 0.566994C7.63547 0.6742 8.63142 1.06551 9.47977 1.69278L9.37561 0.569022C9.34927 0.283684 9.55074 0.0299539 9.82548 0.00241222Z" fill="#696969"/>
</svg>
