<svg width="40" height="29" viewBox="0 0 40 29" fill="none" xmlns="http://www.w3.org/2000/svg">
<path d="M20 6.69259C14.878 6.69259 10.7317 10.7852 10.7317 15.8407C10.7317 20.8963 14.878 24.9889 20 24.9889C25.122 24.9889 29.2683 20.8963 29.2683 15.8407C29.2683 10.8333 25.122 6.69259 20 6.69259ZM20 23.063C15.9512 23.063 12.6829 19.837 12.6829 15.8407C12.6829 11.8444 15.9512 8.61852 20 8.61852C24.0488 8.61852 27.3171 11.8444 27.3171 15.8407C27.3171 19.837 24.0488 23.063 20 23.063ZM36.0976 4.76667L28.7805 4.81482L25.7073 0.385185C25.5122 0.144444 25.2195 0 24.9268 0H15.0732C14.7805 0 14.4878 0.144444 14.2927 0.385185L11.2195 4.81482H3.90244C1.7561 4.81482 0 6.5 0 8.61852V25.037C0 27.1556 1.7561 28.8889 3.90244 28.8889H36.0976C38.2439 28.8889 40 27.1556 40 25.037V8.18519C40 6.06667 38.2439 4.76667 36.0976 4.76667ZM38.0488 25.037C38.0488 26.0963 37.1707 26.963 36.0976 26.963H3.90244C2.82927 26.963 1.95122 26.0963 1.95122 25.037V8.61852C1.95122 7.55926 2.82927 6.74074 3.90244 6.74074H11.7073C12 6.74074 12.2927 6.5963 12.4878 6.35556L15.561 1.92593H24.439L27.5122 6.35556C27.7073 6.5963 28 6.74074 28.2927 6.74074L36.0976 6.69259C37.1707 6.69259 38.0488 7.12593 38.0488 8.18519V25.037Z" fill="#696969"/>
</svg>
