<svg width="22" height="18" viewBox="0 0 22 18" fill="none" xmlns="http://www.w3.org/2000/svg">
<path fill-rule="evenodd" clip-rule="evenodd" d="M12.1229 0C13.9175 0 15.4836 0.804637 16.3221 2C19.0002 2 21.1724 3.79086 21.1724 6V14L21.1665 14.2061C21.0407 16.2512 19.0524 17.8913 16.5731 17.9951L16.3233 18H9.04954L8.79974 17.9951C7.10992 17.9244 5.64844 17.1399 4.84915 16L4.59935 15.9951C2.03732 15.8879 0 14.14 0 12V4C0 1.79086 2.17104 9.66384e-08 4.84915 0H12.1229ZM4.84915 1C2.84057 1 1.21229 2.34315 1.21229 4V12C1.21229 13.6569 2.84057 15 4.84915 15H12.1229C14.1315 15 15.7597 13.6569 15.7597 12V4C15.7597 2.39489 14.2316 1.08421 12.3099 1.00391L12.1229 1H4.84915ZM6.34438 16C7.01024 16.6124 7.97378 17 9.04954 17H16.3233C18.3318 17 19.9601 15.6569 19.9601 14V6C19.9601 4.48434 18.5974 3.23187 16.8276 3.0293C16.9215 3.34011 16.972 3.66519 16.972 4V12L16.9661 12.2061C16.8403 14.2512 14.852 15.8913 12.3727 15.9951L12.1229 16H6.34438Z" fill="white"/>
</svg>
