<svg width="33" height="33" viewBox="0 0 33 33" fill="none" xmlns="http://www.w3.org/2000/svg">
<path fill-rule="evenodd" clip-rule="evenodd" d="M30.0882 0C31.6964 0 33 1.30364 33 2.91176V30.0882C33 31.6964 31.6964 33 30.0882 33H2.91176C1.30364 33 0 31.6964 0 30.0882V2.91176C0 1.30364 1.30364 0 2.91176 0H30.0882ZM27.3547 12.4513C25.8385 10.9351 23.3805 10.9351 21.8643 12.4513L2.36439 31.9507C2.50741 31.9927 2.65712 32.0192 2.81177 32.027L2.91176 32.0294H30.0882C31.1603 32.0294 32.0294 31.1603 32.0294 30.0882V17.1256L27.3547 12.4513ZM7.03676 4.85294C5.83067 4.85294 4.85294 5.83067 4.85294 7.03676C4.85294 8.24286 5.83067 9.22059 7.03676 9.22059C8.24286 9.22059 9.22059 8.24286 9.22059 7.03676C9.22059 5.83067 8.24286 4.85294 7.03676 4.85294Z" fill="#696969"/>
</svg>
