<svg width="15" height="15" viewBox="0 0 15 15" fill="none" xmlns="http://www.w3.org/2000/svg">
<path d="M11.4287 13.0304L14.042 10.3441C14.2612 10.1188 14.6165 10.1188 14.8356 10.3441C15.0548 10.5694 15.0548 10.9346 14.8356 11.1599L11.2643 14.831C11.0451 15.0563 10.6898 15.0563 10.4707 14.831L6.8993 11.1599C6.68013 10.9346 6.68013 10.5694 6.8993 10.3441C7.11848 10.1188 7.47376 10.1188 7.69294 10.3441L10.3062 13.0304V5.1923H11.4287V13.0304Z" fill="#696969"/>
<path d="M3.73573 0.168978C3.95491 -0.056326 4.31019 -0.056326 4.52937 0.168978L8.10072 3.84013C8.31985 4.06544 8.31988 4.43065 8.10072 4.65594C7.88155 4.88123 7.52627 4.8812 7.30708 4.65594L4.69379 1.96962V9.80772H3.57131V1.96962L0.958017 4.65594C0.738853 4.88123 0.383567 4.8812 0.164384 4.65594C-0.0547948 4.43064 -0.0547947 4.06543 0.164384 3.84013L3.73573 0.168978Z" fill="#696969"/>
</svg>
